<svg xmlns="http://www.w3.org/2000/svg" width="348.077" height="348.077" viewBox="0 0 348.077 348.077"><path d="M340.273 275.083l-53.755-53.76c-10.707-10.665-28.438-10.34-39.518.743l-27.082 27.076c-1.71-.943-3.482-1.928-5.344-2.973-17.102-9.477-40.51-22.465-65.14-47.114-24.704-24.7-37.704-48.144-47.21-65.257-1.002-1.814-1.963-3.562-2.912-5.222l18.176-18.15 8.936-8.946c11.097-11.1 11.403-28.826.72-39.52L73.39 8.193c-10.682-10.68-28.42-10.356-39.518.744l-15.15 15.237.414.41c-5.08 6.483-9.325 13.96-12.484 22.02C3.74 54.28 1.927 61.604 1.098 68.942-6 127.786 20.89 181.565 93.866 254.54c100.875 100.87 182.167 93.25 185.674 92.877 7.638-.913 14.958-2.738 22.397-5.627 7.992-3.122 15.463-7.36 21.94-12.43l.332.294 15.347-15.03c11.074-11.097 11.393-28.83.716-39.54z"/></svg>