<svg xmlns="http://www.w3.org/2000/svg" viewBox="0 0 300 300" enable-background="new 0 0 300 300"><path d="M5.3 144.645l69.125 25.8 26.756 86.047c1.713 5.51 8.452 7.548 12.925 3.89l38.532-31.41c4.04-3.292 9.792-3.456 14.013-.392l69.498 50.457c4.785 3.478 11.564.856 12.764-4.926l50.91-244.89c1.31-6.316-4.895-11.585-10.91-9.26L5.22 129.403c-7 2.7-6.94 12.612.08 15.243zm91.57 12.066l135.097-83.206c2.428-1.49 4.926 1.792 2.84 3.726L123.314 180.87c-3.92 3.648-6.447 8.53-7.163 13.83l-3.798 28.145c-.503 3.758-5.782 4.13-6.82.494l-14.606-51.326c-1.673-5.854.765-12.107 5.943-15.303z"/></svg>