<svg xmlns="http://www.w3.org/2000/svg"><symbol viewBox="0 0 348.077 348.077" id="sprite-icon-call"><path d="M340.273 275.083l-53.755-53.76c-10.707-10.665-28.438-10.34-39.518.743l-27.082 27.076c-1.71-.943-3.482-1.928-5.344-2.973-17.102-9.478-40.51-22.466-65.14-47.115-24.704-24.7-37.704-48.144-47.21-65.257-1.002-1.814-1.963-3.562-2.912-5.222l18.176-18.15 8.936-8.946c11.097-11.1 11.403-28.826.72-39.52L73.39 8.193c-10.682-10.68-28.42-10.356-39.518.744l-15.15 15.237.414.41c-5.08 6.483-9.325 13.96-12.484 22.02-2.912 7.676-4.725 15-5.554 22.338C-6 127.786 20.89 181.565 93.866 254.54c100.875 100.87 182.167 93.25 185.674 92.877 7.638-.913 14.958-2.738 22.397-5.627 7.992-3.122 15.463-7.36 21.94-12.43l.332.294 15.346-15.03c11.074-11.097 11.393-28.83.716-39.54z"/></symbol><symbol viewBox="0 0 475.084 475.085" id="sprite-icon-cart"><path d="M365.446 401.998c0 10.092 3.58 18.702 10.71 25.834 7.133 7.14 15.75 10.71 25.846 10.71 10.08 0 18.698-3.57 25.83-10.71 7.14-7.132 10.71-15.742 10.71-25.834s-3.567-18.702-10.71-25.84c-7.132-7.133-15.75-10.705-25.83-10.705-10.096 0-18.713 3.572-25.845 10.704-7.132 7.14-10.71 15.75-10.71 25.84zM469.658 78.51c-3.618-3.617-7.898-5.426-12.848-5.426H113.918c-.193-1.33-.62-3.756-1.287-7.277-.664-3.523-1.186-6.33-1.567-8.425-.383-2.087-1.093-4.61-2.142-7.56-1.046-2.953-2.283-5.287-3.71-6.996-1.425-1.718-3.33-3.19-5.71-4.43-2.376-1.233-5.09-1.853-8.134-1.853h-73.09c-4.95 0-9.233 1.812-12.85 5.424C1.81 45.583 0 49.867 0 54.817s1.81 9.23 5.426 12.846c3.62 3.617 7.902 5.424 12.85 5.424h58.237l50.532 234.976c-.378.76-2.33 4.373-5.852 10.848-3.52 6.477-6.328 12.137-8.42 16.99-2.093 4.86-3.14 8.616-3.14 11.28 0 4.947 1.81 9.23 5.424 12.853 3.62 3.606 7.902 5.42 12.85 5.42h292.348c4.95 0 9.233-1.813 12.848-5.42 3.62-3.62 5.427-7.905 5.427-12.854 0-4.95-1.807-9.234-5.427-12.848-3.614-3.613-7.898-5.427-12.847-5.427h-262.66c4.57-9.138 6.854-15.222 6.854-18.268 0-1.91-.238-4.004-.715-6.283s-1.047-4.805-1.713-7.57c-.667-2.75-1.093-4.798-1.283-6.132l298.075-34.83c4.753-.576 8.658-2.615 11.703-6.14 3.045-3.52 4.564-7.563 4.564-12.134V91.363c-.002-4.948-1.806-9.23-5.426-12.853zM109.632 401.998c0 10.092 3.567 18.702 10.706 25.834 7.14 7.14 15.75 10.71 25.84 10.71 10.086 0 18.7-3.57 25.836-10.71 7.14-7.132 10.71-15.742 10.71-25.834s-3.568-18.702-10.71-25.84c-7.137-7.133-15.75-10.705-25.835-10.705-10.09 0-18.706 3.572-25.843 10.704-7.135 7.14-10.706 15.75-10.706 25.84z"/></symbol><symbol viewBox="0 0 155.139 155.139" id="sprite-icon-facebook"><path d="M89.584 155.14V84.377h23.742l3.562-27.585H89.584v-17.61c0-7.983 2.208-13.424 13.67-13.424l14.595-.007V1.08C115.324.752 106.66 0 96.576 0 75.52 0 61.104 12.853 61.104 36.452v20.34H37.29V84.38h23.814v70.76h28.48z"/></symbol><symbol viewBox="0 0 430.117 430.117" id="sprite-icon-linkedin"><path d="M430.117 261.543V420.56H337.93V272.193c0-37.27-13.335-62.707-46.704-62.707-25.473 0-40.632 17.142-47.3 33.724-2.433 5.928-3.06 14.18-3.06 22.477V420.56H148.65s1.242-251.285 0-277.32h92.21v39.31c-.187.293-.43.61-.606.895h.606v-.896c12.25-18.87 34.13-45.825 83.102-45.825 60.673 0 106.157 39.636 106.157 124.818zM52.183 9.558C20.635 9.558 0 30.25 0 57.463c0 26.62 20.038 47.94 50.96 47.94h.615c32.16 0 52.16-21.317 52.16-47.94-.607-27.212-20-47.905-51.552-47.905zM5.477 420.56H97.66V143.24H5.478v277.32z"/></symbol><symbol viewBox="0 0 451 451" id="sprite-icon-magnifying-glass"><path d="M447.05 428l-109.6-109.6c29.4-33.8 47.2-77.9 47.2-126.1C384.65 86.2 298.35 0 192.35 0 86.25 0 .05 86.3.05 192.3s86.3 192.3 192.3 192.3c48.2 0 92.3-17.8 126.1-47.2L428.05 447c2.6 2.6 6.1 4 9.5 4s6.9-1.3 9.5-4c5.2-5.2 5.2-13.8 0-19zM26.95 192.3c0-91.2 74.2-165.3 165.3-165.3 91.2 0 165.3 74.2 165.3 165.3s-74.1 165.4-165.3 165.4c-91.1 0-165.3-74.2-165.3-165.4z"/></symbol><symbol viewBox="0 0 14 14" id="sprite-icon-mail"><path d="M7 9L5.268 7.484.316 11.73c.18.166.423.27.69.27h11.987c.267 0 .51-.104.688-.27L8.734 7.483 7 9zm6.684-6.73c-.18-.167-.422-.27-.69-.27H1.006c-.267 0-.51.104-.69.273L7 8l6.684-5.73zM0 2.878v8.308L4.833 7.08zM9.167 7.08L14 11.185v-8.31z"/></symbol><symbol viewBox="0 0 300 300" id="sprite-icon-telegram"><path d="M5.3 144.645l69.125 25.8 26.756 86.047c1.713 5.51 8.452 7.548 12.925 3.89l38.532-31.41c4.04-3.292 9.792-3.456 14.013-.392l69.498 50.457c4.785 3.478 11.564.856 12.764-4.926l50.91-244.89c1.31-6.316-4.895-11.585-10.91-9.26L5.22 129.403c-7 2.7-6.94 12.612.08 15.243zm91.57 12.066l135.097-83.206c2.428-1.49 4.926 1.792 2.84 3.726L123.314 180.87c-3.92 3.648-6.447 8.53-7.163 13.83l-3.798 28.145c-.503 3.758-5.782 4.13-6.82.494l-14.606-51.326c-1.673-5.854.765-12.107 5.943-15.303z"/></symbol><symbol viewBox="0 0 612 612" id="sprite-icon-twitter"><path d="M612 116.258c-22.525 9.98-46.694 16.75-72.088 19.772 25.93-15.527 45.777-40.155 55.184-69.41-24.322 14.378-51.17 24.82-79.775 30.48-22.906-24.438-55.49-39.66-91.63-39.66-69.333 0-125.55 56.218-125.55 125.514 0 9.828 1.11 19.427 3.25 28.606-104.325-5.24-196.834-55.223-258.75-131.174-10.822 18.51-16.98 40.078-16.98 63.1 0 43.56 22.182 81.994 55.836 104.48-20.575-.688-39.926-6.348-56.867-15.756v1.568c0 60.806 43.29 111.554 100.692 123.104-10.517 2.83-21.607 4.398-33.08 4.398-8.107 0-15.947-.803-23.634-2.333 15.985 49.907 62.336 86.2 117.253 87.194-42.946 33.655-97.098 53.656-155.915 53.656-10.134 0-20.116-.612-29.944-1.72 55.568 35.68 121.537 56.484 192.44 56.484 230.947 0 357.187-191.29 357.187-357.188l-.42-16.253C573.87 163.525 595.21 141.42 612 116.257z"/></symbol></svg>